<svg width="796" height="1229" viewBox="0 0 796 1229" fill="none" xmlns="http://www.w3.org/2000/svg">
<path d="M34.7775 404.541C39.4731 359.933 59 308.502 59 263.847C59 199.762 180.617 116.713 230.782 88.0474C282.563 58.4585 329.401 28.347 391.144 28.347C437.986 28.347 473.095 33.2601 512.701 58.1972C522.478 64.3533 534.358 74.6459 539.566 85.0624C544.108 94.1455 542.372 103.92 545.039 113.254C549.443 128.669 546.211 147.722 539.566 162.673C536.021 170.648 537.435 180.901 533.596 189.538C530.384 196.764 532.933 210.008 532.933 217.896C532.933 259.238 556.775 310.809 582.02 343.267C600.656 367.227 621.96 389.819 643.047 413.249C669.835 443.013 711.957 463.559 733.592 496.995C744.048 513.155 758.157 529.181 762.613 549.233C772.203 592.384 766.253 642.269 753.824 684.388C744.299 716.668 731.639 748.902 717.009 779.245C710.108 793.558 702.523 818.031 689.646 828.332C670.506 843.645 651.616 860.93 634.423 879.078C623.543 890.562 619.265 904.204 613.528 918.546C598.638 955.771 593.025 994.519 582.351 1032.64C578.273 1047.21 590 1061.35 586.663 1088.03C582.351 1126.85 416.554 1204.69 404.134 1200.45C402.998 1200.06 401.98 1199.62 400.888 1199.12C392.499 1195.27 353.536 1176.98 335.5 1160.85C319.155 1146.22 268.471 1105.21 250.882 1091C236.708 1079.55 212.552 1062.83 203.053 1047.63C188.436 1024.24 174.394 1004.06 174.394 974.431V937.639C174.394 916.31 188.715 898.296 196.082 879.546C207.653 850.09 229.857 827.259 248.365 802.089C294.378 739.511 303.359 668.988 303.359 592.762C303.359 535.903 271.304 500.394 214.478 500.394C182.959 500.394 178.815 536.592 158.709 552.678C142.999 565.245 132.285 582.624 113.396 591.019C94.4094 599.457 53.0259 607.243 41.9422 582.305C29.8635 555.128 28 532.214 28 502.137C28 468.911 31.212 438.405 34.6149 406.086L34.7775 404.541Z" stroke="#E0DFEF" stroke-width="56" stroke-linecap="round"/>
</svg>
