<svg width="124" height="124" viewBox="0 0 124 124" fill="none" xmlns="http://www.w3.org/2000/svg">
<g clip-path="url(#clip0_63_719)">
<rect width="124" height="124" rx="36" fill="white"/>
<path d="M0 8.65752C0 3.8761 2.1531 0 4.80909 0H119.175C121.831 0 123.984 3.8761 123.984 8.65752V115.342C123.984 120.124 121.831 124 119.175 124H4.80909C2.1531 124 0 120.124 0 115.342V8.65752Z" fill="#FA3B6A"/>
<path d="M25.6986 50.3218C51.8434 50.3218 73.038 31.1836 73.038 7.57533C73.038 4.9902 72.7838 2.45867 72.2969 0H4.80909C2.1531 0 0 3.8761 0 8.65752V43.481C7.40094 47.8089 16.2248 50.3218 25.6986 50.3218Z" fill="#D22ED4"/>
<path d="M124 62.2259V115.268C124 120.049 121.847 123.925 119.191 123.925H46.0038C45.8126 122.427 45.6798 120.886 45.6102 119.308L44.9911 105.283C44.2217 87.8564 51.4456 72.6062 61.126 71.2212L124 62.2259Z" fill="#9E60ED"/>
</g>
<defs>
<clipPath id="clip0_63_719">
<rect width="124" height="124" rx="36" fill="white"/>
</clipPath>
</defs>
</svg>
