<svg width="224" height="124" viewBox="0 0 224 124" fill="none" xmlns="http://www.w3.org/2000/svg">
<path d="M0 8.65752C0 3.8761 3.88947 0 8.68738 0H215.284C220.082 0 223.972 3.8761 223.972 8.65752V115.342C223.972 120.124 220.082 124 215.284 124H8.68739C3.88948 124 0 120.124 0 115.342V8.65752Z" fill="#FA3B6A"/>
<path d="M46.4232 50.3218C93.6526 50.3218 131.94 31.1836 131.94 7.57533C131.94 4.9902 131.48 2.45867 130.601 0H8.68738C3.88947 0 0 3.8761 0 8.65752V43.481C13.3694 47.8089 29.3092 50.3218 46.4232 50.3218Z" fill="#D22ED4"/>
<path d="M224 62.2259V115.268C224 120.049 220.111 123.925 215.313 123.925H83.1036C82.7583 122.427 82.5184 120.886 82.3926 119.308L81.2742 105.284C79.8844 87.8564 92.934 72.6062 110.421 71.2212L224 62.2259Z" fill="#9E60ED"/>
</svg>
