<svg width="224" height="124" viewBox="0 0 224 124" fill="none" xmlns="http://www.w3.org/2000/svg">
<path d="M0 8.65752C0 3.8761 3.88947 0 8.68738 0H215.284C220.082 0 223.972 3.8761 223.972 8.65752V115.342C223.972 120.124 220.082 124 215.284 124H8.68739C3.88948 124 0 120.124 0 115.342V8.65752Z" fill="#FA3B6A"/>
<path d="M46.4232 50.3218C93.6526 50.3218 131.94 31.1836 131.94 7.57533C131.94 4.9902 131.48 2.45867 130.601 0H8.68738C3.88947 0 0 3.8761 0 8.65752V43.481C13.3694 47.8089 29.3092 50.3218 46.4232 50.3218Z" fill="#D22ED4"/>
<path d="M224 62.2259V115.268C224 120.049 220.111 123.925 215.313 123.925H83.1036C82.7583 122.427 82.5184 120.886 82.3926 119.308L81.2742 105.284C79.8844 87.8564 92.934 72.6062 110.421 71.2212L224 62.2259Z" fill="#9E60ED"/>
<path d="M212 4C210.418 4 208.871 4.46919 207.555 5.34824C206.24 6.22729 205.214 7.47672 204.609 8.93853C204.003 10.4003 203.845 12.0089 204.154 13.5607C204.462 15.1126 205.224 16.538 206.343 17.6569C207.462 18.7757 208.887 19.5376 210.439 19.8463C211.991 20.155 213.6 19.9965 215.061 19.391C216.523 18.7855 217.773 17.7602 218.652 16.4446C219.531 15.129 220 13.5823 220 12C220 9.87827 219.157 7.84344 217.657 6.34315C216.157 4.84285 214.122 4 212 4ZM215.93 9.48L214.62 15.67C214.52 16.11 214.26 16.21 213.89 16.01L211.89 14.53L210.89 15.46C210.843 15.5215 210.782 15.5715 210.713 15.6062C210.644 15.6408 210.567 15.6592 210.49 15.66L210.63 13.66L214.33 10.31C214.5 10.17 214.33 10.09 214.09 10.23L209.55 13.08L207.55 12.46C207.12 12.33 207.11 12.03 207.64 11.83L215.35 8.83C215.73 8.72 216.05 8.94 215.93 9.48Z" fill="#731B31"/>
</svg>
