<svg width="124" height="124" viewBox="0 0 124 124" fill="none" xmlns="http://www.w3.org/2000/svg">
<g clip-path="url(#clip0_131_943)">
<rect width="124" height="124" rx="36" fill="white"/>
<path d="M0 8.65752C0 3.8761 2.1531 0 4.80909 0H119.175C121.831 0 123.984 3.8761 123.984 8.65752V115.342C123.984 120.124 121.831 124 119.175 124H4.80909C2.1531 124 0 120.124 0 115.342V8.65752Z" fill="#FA3B6A"/>
<path d="M25.6986 50.3218C51.8434 50.3218 73.038 31.1836 73.038 7.57533C73.038 4.9902 72.7838 2.45867 72.2969 0H4.80909C2.1531 0 0 3.8761 0 8.65752V43.481C7.40094 47.8089 16.2248 50.3218 25.6986 50.3218Z" fill="#D22ED4"/>
<path d="M124 62.2259V115.268C124 120.049 121.847 123.925 119.191 123.925H46.0038C45.8126 122.427 45.6798 120.886 45.6102 119.308L44.9911 105.283C44.2217 87.8564 51.4456 72.6062 61.126 71.2212L124 62.2259Z" fill="#9E60ED"/>
<path d="M47.1562 74.25C46.4583 73.9792 45.8802 73.6927 45.4219 73.3906C44.974 73.0781 44.6302 72.7396 44.3906 72.375C44.1615 72 44.0208 71.5885 43.9688 71.1406L44.5781 71.4688H43.0781L43.8594 69.5625V60.75L43.0781 59.0625H43.4688V49.9375H47.1562V68.8594C47.1562 69.5156 47.25 69.9948 47.4375 70.2969C47.625 70.5885 47.9792 70.8438 48.5 71.0625L47.1562 74.25ZM38.4375 74.25C37.4792 74.25 36.5521 74.0625 35.6562 73.6875C34.7708 73.3021 33.974 72.7448 33.2656 72.0156C32.5677 71.2865 32.0156 70.3906 31.6094 69.3281C31.2135 68.2552 31.0208 67.0365 31.0312 65.6719C31.0104 63.8385 31.349 62.2812 32.0469 61C32.7552 59.7188 33.6823 58.7396 34.8281 58.0625C35.974 57.3854 37.1979 57.0469 38.5 57.0469C39.9062 57.0469 41.151 57.4167 42.2344 58.1562C43.3281 58.8958 44.1823 59.9115 44.7969 61.2031C45.4219 62.4844 45.7396 63.9427 45.75 65.5781C45.7396 67.2135 45.4167 68.6875 44.7812 70C44.1458 71.3125 43.276 72.349 42.1719 73.1094C41.0781 73.8698 39.8333 74.25 38.4375 74.25ZM39.2031 71.0625C40.0781 71.0625 40.8542 70.8281 41.5312 70.3594C42.2083 69.8906 42.7396 69.25 43.125 68.4375C43.5104 67.6146 43.7083 66.6771 43.7188 65.625C43.7083 64.5 43.5052 63.5365 43.1094 62.7344C42.7135 61.9323 42.1771 61.3177 41.5 60.8906C40.8229 60.4531 40.0729 60.2396 39.25 60.25C38.3646 60.2396 37.5729 60.4583 36.875 60.9062C36.1875 61.3542 35.651 61.9844 35.2656 62.7969C34.8802 63.599 34.6927 64.5417 34.7031 65.625C34.6927 66.6771 34.875 67.6146 35.25 68.4375C35.6354 69.25 36.1719 69.8906 36.8594 70.3594C37.5469 70.8281 38.3281 71.0625 39.2031 71.0625ZM57.5156 74.25C56.3177 74.25 55.25 73.9948 54.3125 73.4844C53.375 72.974 52.6354 72.2344 52.0938 71.2656C51.5625 70.2865 51.2969 69.099 51.2969 67.7031V57.3281H54.9844V67.3281C54.9844 68.5469 55.3125 69.4635 55.9688 70.0781C56.625 70.6927 57.4167 71 58.3438 71C59.0625 71 59.6875 70.8438 60.2188 70.5312C60.7604 70.2083 61.1823 69.7708 61.4844 69.2188C61.7969 68.6667 61.9531 68.0365 61.9531 67.3281V57.3281H65.6406V68.7812C65.6406 69.4479 65.7292 69.9427 65.9062 70.2656C66.0833 70.5885 66.4427 70.8542 66.9844 71.0625L65.625 74.25C64.6562 73.9062 63.9115 73.4688 63.3906 72.9375C62.8698 72.3958 62.6094 71.7917 62.6094 71.125L63.7812 71.9375H61.6875L63.4844 70.7812C62.9531 71.7396 62.1875 72.5573 61.1875 73.2344C60.1875 73.9115 58.9635 74.25 57.5156 74.25ZM69.9688 74V57.3281H73.6562V74H69.9688ZM71.8125 55C71.1146 55 70.526 54.7604 70.0469 54.2812C69.5781 53.8021 69.3438 53.2188 69.3438 52.5312C69.3438 51.8438 69.5781 51.2604 70.0469 50.7812C70.526 50.3021 71.1146 50.0625 71.8125 50.0625C72.5 50.0625 73.0833 50.3021 73.5625 50.7812C74.0417 51.2604 74.2812 51.8438 74.2812 52.5312C74.2812 53.2188 74.0417 53.8021 73.5625 54.2812C73.0833 54.7604 72.5 55 71.8125 55ZM77.5625 74V57.3281H81.1719V59.4375H81.8594L80.5781 60.8594C80.8281 60.026 81.2344 59.3333 81.7969 58.7812C82.3698 58.2188 83.0417 57.7969 83.8125 57.5156C84.5938 57.224 85.4323 57.0781 86.3281 57.0781C87.599 57.0781 88.651 57.3646 89.4844 57.9375C90.3281 58.5104 90.9583 59.2604 91.375 60.1875C91.7917 61.1146 92 62.1198 92 63.2031V74H88.3125V64C88.3125 62.7708 88.0104 61.8438 87.4062 61.2188C86.8021 60.5938 85.9792 60.2812 84.9375 60.2812C84.25 60.2812 83.625 60.4271 83.0625 60.7188C82.5 61 82.0573 61.4167 81.7344 61.9688C81.4115 62.5208 81.25 63.2031 81.25 64.0156V74H77.5625Z" fill="white"/>
</g>
<defs>
<clipPath id="clip0_131_943">
<rect width="124" height="124" rx="36" fill="white"/>
</clipPath>
</defs>
</svg>
